STARTFONT 2.1
COMMENT
COMMENT Converted from OpenType font "Q:\font stuff\winfont\Mad scientist .ttf" by "otf2bdf 3.0".
COMMENT
FONT -FreeType-Mad scientist -Medium-R-Normal--32-320-72-72-P-154-ISO10646-1
SIZE 32 72 72
FONTBOUNDINGBOX 28 38 -3 -2
STARTPROPERTIES 19
FOUNDRY "FreeType"
FAMILY_NAME "Mad scientist "
WEIGHT_NAME "Medium"
SLANT "R"
SETWIDTH_NAME "Normal"
ADD_STYLE_NAME ""
PIXEL_SIZE 32
POINT_SIZE 320
RESOLUTION_X 72
RESOLUTION_Y 72
SPACING "P"
AVERAGE_WIDTH 154
CHARSET_REGISTRY "ISO10646"
CHARSET_ENCODING "1"
FONT_ASCENT 36
FONT_DESCENT 6
COPYRIGHT "(c) Jakob Fischer at www.pizzadude.dk - DO NOT DISTRIBUTE WITHOUT AUTHOR'S PERMISSION!"
_OTF_FONTFILE "Q:\font stuff\winfont\Mad scientist .ttf"
_OTF_PSNAME "Madscientist"
ENDPROPERTIES
CHARS 151
STARTCHAR 0020
ENCODING 32
SWIDTH 281 0
DWIDTH 9 0
BBX 0 0 0 0
BITMAP
ENDCHAR
STARTCHAR 0021
ENCODING 33
SWIDTH 187 0
DWIDTH 6 0
BBX 7 24 -1 2
BITMAP
3C
66
42
46
46
C6
C6
84
84
84
84
84
84
84
84
84
88
70
70
90
88
90
90
E0
ENDCHAR
STARTCHAR 0022
ENCODING 34
SWIDTH 406 0
DWIDTH 13 0
BBX 11 10 0 16
BITMAP
39C0
4E20
8620
8620
8E20
8E20
8C20
8C20
9E40
73C0
ENDCHAR
STARTCHAR 0023
ENCODING 35
SWIDTH 562 0
DWIDTH 18 0
BBX 17 24 0 2
BITMAP
038700
044880
045880
0C5080
08F180
180180
200080
200080
300180
11E100
11E200
21E200
214200
23C200
63C200
C00100
800100
C00300
478600
458C00
850800
8D0800
8D1800
78F000
ENDCHAR
STARTCHAR 0024
ENCODING 36
SWIDTH 468 0
DWIDTH 15 0
BBX 16 21 -1 4
BITMAP
01E0
0320
0230
3E3E
6003
4001
4001
4002
60FC
3060
1830
0C18
060C
7F06
8002
8002
8004
7C7C
0C40
04C0
0780
ENDCHAR
STARTCHAR 0025
ENCODING 37
SWIDTH 468 0
DWIDTH 15 0
BBX 16 24 -1 2
BITMAP
1F0E
2192
40A1
40C3
40C3
4086
6186
1F0C
0208
0218
0410
0C30
0860
1840
10C0
30F8
618C
4304
C202
8602
8604
8B04
9908
70F0
ENDCHAR
STARTCHAR 0026
ENCODING 38
SWIDTH 468 0
DWIDTH 15 0
BBX 16 24 -1 2
BITMAP
03E0
0C18
180C
3006
21C2
4263
4423
4423
4632
419C
605C
2062
2042
43C2
C742
8842
8842
8C82
8704
8004
4008
6010
3060
0F80
ENDCHAR
STARTCHAR 0027
ENCODING 39
SWIDTH 250 0
DWIDTH 8 0
BBX 7 11 0 15
BITMAP
3C
46
C2
82
84
84
82
82
82
C4
78
ENDCHAR
STARTCHAR 0028
ENCODING 40
SWIDTH 343 0
DWIDTH 11 0
BBX 12 28 -1 -2
BITMAP
01E0
0330
0410
0830
1060
1080
2100
2200
4200
4400
4400
4400
8C00
8800
8800
8800
8800
8800
8800
4400
4400
4600
4300
21C0
3040
1040
0C40
0780
ENDCHAR
STARTCHAR 0029
ENCODING 41
SWIDTH 406 0
DWIDTH 13 0
BBX 12 28 0 -2
BITMAP
1E00
3300
2080
20C0
1840
0C60
0420
0620
0220
0230
0230
0230
0230
0230
0230
0220
0220
0420
0460
0440
0840
08C0
3080
6180
8300
8600
8C00
7000
ENDCHAR
STARTCHAR 002A
ENCODING 42
SWIDTH 531 0
DWIDTH 17 0
BBX 15 15 1 7
BITMAP
01C0
0240
0460
0420
0420
7C3C
4002
8002
8002
8004
7C7C
0840
0840
08C0
0780
ENDCHAR
STARTCHAR 002B
ENCODING 43
SWIDTH 531 0
DWIDTH 17 0
BBX 15 15 1 7
BITMAP
01C0
0240
0460
0420
0420
7C3C
4002
8002
8002
8004
7C7C
0840
0840
08C0
0780
ENDCHAR
STARTCHAR 002C
ENCODING 44
SWIDTH 250 0
DWIDTH 8 0
BBX 6 10 0 -2
BITMAP
38
4C
84
84
84
84
84
84
88
70
ENDCHAR
STARTCHAR 002D
ENCODING 45
SWIDTH 531 0
DWIDTH 17 0
BBX 15 6 1 11
BITMAP
7FFC
4002
8002
8002
C004
7FFC
ENDCHAR
STARTCHAR 002E
ENCODING 46
SWIDTH 250 0
DWIDTH 8 0
BBX 5 6 1 2
BITMAP
70
C8
88
88
C8
70
ENDCHAR
STARTCHAR 002F
ENCODING 47
SWIDTH 468 0
DWIDTH 15 0
BBX 16 24 -1 2
BITMAP
000E
0012
0021
0043
0043
0086
0086
010C
0208
0218
0410
0430
0860
1840
10C0
3080
2180
4300
4200
8600
8400
8C00
9800
7000
ENDCHAR
STARTCHAR 0030
ENCODING 48
SWIDTH 468 0
DWIDTH 15 0
BBX 16 24 -1 2
BITMAP
03E0
0C18
180C
3006
21C2
43C3
4483
4503
4603
4603
C402
8022
8062
8062
80E2
80E2
8162
83C2
8386
8004
4008
6010
1860
0F80
ENDCHAR
STARTCHAR 0031
ENCODING 49
SWIDTH 343 0
DWIDTH 11 0
BBX 11 24 0 2
BITMAP
0380
0640
1860
3040
6040
C040
8040
8040
9840
7840
0840
08C0
08C0
08C0
1880
1880
1080
1080
1080
1080
1080
1080
1100
0E00
ENDCHAR
STARTCHAR 0032
ENCODING 50
SWIDTH 468 0
DWIDTH 15 0
BBX 16 24 -1 2
BITMAP
01E0
0218
0204
0202
0382
00E2
0031
0011
0022
01C2
0E06
100C
2018
41E0
4700
8400
8400
8400
87FC
8004
8002
8004
8004
FFF8
ENDCHAR
STARTCHAR 0033
ENCODING 51
SWIDTH 468 0
DWIDTH 15 0
BBX 16 24 -1 2
BITMAP
03F0
0E18
1804
3002
21C3
4261
4621
4421
4CC1
3B82
0406
040C
040C
0386
78E6
8C22
8C22
8646
8384
8004
4008
6018
3060
0F80
ENDCHAR
STARTCHAR 0034
ENCODING 52
SWIDTH 562 0
DWIDTH 18 0
BBX 16 24 1 2
BITMAP
0E0E
1113
3113
2123
2123
6222
4222
4222
4222
43E2
8002
8002
8002
8002
7FC2
0046
0044
0044
0044
0044
0044
0044
004C
0038
ENDCHAR
STARTCHAR 0035
ENCODING 53
SWIDTH 500 0
DWIDTH 16 0
BBX 15 24 0 3
BITMAP
3FE0
4018
4008
4018
47F0
4400
C400
8400
8400
83C0
8030
8008
8004
7FC6
7862
8C22
8C22
8442
8386
C004
400C
2018
1870
0FC0
ENDCHAR
STARTCHAR 0036
ENCODING 54
SWIDTH 500 0
DWIDTH 16 0
BBX 15 24 0 2
BITMAP
00E0
0110
0210
0610
0420
0C20
0840
18C0
1080
10C0
2030
2008
6004
4004
4382
C442
8822
8C42
8782
C004
4008
2018
1820
0FC0
ENDCHAR
STARTCHAR 0037
ENCODING 55
SWIDTH 468 0
DWIDTH 15 0
BBX 15 24 0 2
BITMAP
7FFC
4002
8002
C002
7FC4
00C4
0084
0188
0188
0108
0310
0310
0210
0620
0620
0C20
0C40
0C40
0840
1880
1880
1080
1900
0F00
ENDCHAR
STARTCHAR 0038
ENCODING 56
SWIDTH 468 0
DWIDTH 15 0
BBX 16 24 -1 2
BITMAP
03F0
0418
1804
3002
21C3
4261
4421
4421
4641
4382
6006
200C
200C
4006
C386
8442
8842
8846
8484
8304
4008
6018
3060
0F80
ENDCHAR
STARTCHAR 0039
ENCODING 57
SWIDTH 468 0
DWIDTH 15 0
BBX 14 24 0 2
BITMAP
07C0
1820
2010
4008
4708
8C84
8884
8884
8904
8604
C008
4008
6018
3E10
0E10
0620
0420
0460
0840
0840
1880
1080
1F00
0E00
ENDCHAR
STARTCHAR 003A
ENCODING 58
SWIDTH 187 0
DWIDTH 6 0
BBX 7 15 -1 2
BITMAP
3C
66
42
46
38
00
00
00
00
38
CC
84
84
C8
70
ENDCHAR
STARTCHAR 003B
ENCODING 59
SWIDTH 250 0
DWIDTH 8 0
BBX 7 19 0 -2
BITMAP
1C
22
22
26
1C
00
00
00
00
38
4C
84
84
84
84
84
84
88
70
ENDCHAR
STARTCHAR 003C
ENCODING 60
SWIDTH 406 0
DWIDTH 13 0
BBX 11 15 1 7
BITMAP
01C0
0640
0C60
1860
3040
60C0
C180
8300
8300
C180
6080
3040
1840
0CC0
0380
ENDCHAR
STARTCHAR 003D
ENCODING 61
SWIDTH 500 0
DWIDTH 16 0
BBX 15 11 0 9
BITMAP
7FFC
C002
8002
8006
7FFC
1FF8
7FFC
C002
8002
8006
7FFC
ENDCHAR
STARTCHAR 003E
ENCODING 62
SWIDTH 312 0
DWIDTH 10 0
BBX 11 15 -1 7
BITMAP
3800
6400
4200
4100
6080
30C0
1840
0860
1040
20C0
4180
8300
8600
9800
7000
ENDCHAR
STARTCHAR 003F
ENCODING 63
SWIDTH 468 0
DWIDTH 15 0
BBX 16 24 -1 2
BITMAP
03E0
0C18
1004
2006
6382
4642
4621
4423
4C42
3F82
1806
200C
4018
C1F0
87C0
8C00
8C00
9800
7800
9000
8800
8800
9000
E000
ENDCHAR
STARTCHAR 0041
ENCODING 65
SWIDTH 500 0
DWIDTH 16 0
BBX 15 24 0 2
BITMAP
00E0
0120
0230
0210
0610
0418
0418
0C18
0818
0808
1808
1088
108C
318C
218C
2184
6244
4244
4244
C446
8446
8C42
8826
703C
ENDCHAR
STARTCHAR 0042
ENCODING 66
SWIDTH 468 0
DWIDTH 15 0
BBX 16 24 -1 2
BITMAP
1FE0
6018
4004
6002
3FC2
0022
0031
0022
0062
39C2
4E06
840C
840C
8604
85C4
8442
8442
8444
8784
8004
8008
8010
8060
7F80
ENDCHAR
STARTCHAR 0043
ENCODING 67
SWIDTH 468 0
DWIDTH 15 0
BBX 16 24 -1 2
BITMAP
03F0
0C18
1804
3002
20E3
4361
4431
4431
4432
441C
C800
8800
8800
8800
883C
8862
8842
8CC2
8786
8004
4008
6018
1860
0F80
ENDCHAR
STARTCHAR 0044
ENCODING 68
SWIDTH 468 0
DWIDTH 15 0
BBX 16 24 -1 3
BITMAP
1FE0
6018
4004
4002
43C2
4263
4223
4423
4423
4422
8422
8422
8422
8422
8422
8422
8442
8444
8784
8004
8008
8010
8060
7F80
ENDCHAR
STARTCHAR 0045
ENCODING 69
SWIDTH 468 0
DWIDTH 15 0
BBX 16 24 -1 2
BITMAP
03FE
0C01
1001
2003
21FC
4600
4800
4800
4800
47FC
8C06
8802
8802
8FE4
8BF8
8800
8800
8800
8400
C3FC
4002
7002
3FC6
07F8
ENDCHAR
STARTCHAR 0046
ENCODING 70
SWIDTH 437 0
DWIDTH 14 0
BBX 17 24 -1 2
BITMAP
01FE00
0E0100
180080
300100
21FE00
420000
440000
440000
440000
47FC00
C40200
8C0300
8C0200
8FF200
8BFC00
880000
880000
880000
880000
880000
880000
880000
900000
E00000
ENDCHAR
STARTCHAR 0047
ENCODING 71
SWIDTH 468 0
DWIDTH 15 0
BBX 16 24 -1 2
BITMAP
03E0
0C18
1804
3006
21C2
4263
4423
4423
4436
47FE
C602
8402
8402
8402
8FE2
8862
8822
8466
8384
8004
4008
6018
1060
0F80
ENDCHAR
STARTCHAR 0048
ENCODING 72
SWIDTH 531 0
DWIDTH 17 0
BBX 17 24 0 2
BITMAP
1C0E00
221100
221180
221100
623100
422100
422100
442100
442100
47E100
460100
440100
440100
440100
47E300
442300
842200
886200
884200
884200
884200
884200
984600
703C00
ENDCHAR
STARTCHAR 0049
ENCODING 73
SWIDTH 187 0
DWIDTH 6 0
BBX 7 24 -1 2
BITMAP
1C
26
42
42
46
46
46
46
44
44
C4
84
84
84
84
84
84
84
84
84
84
84
88
70
ENDCHAR
STARTCHAR 004A
ENCODING 74
SWIDTH 531 0
DWIDTH 17 0
BBX 16 24 0 2
BITMAP
000E
0011
0021
0021
0021
0021
0021
0021
0021
0022
0022
0062
0042
0042
7842
8842
8C42
8CC2
8704
8004
4008
6010
1860
0F80
ENDCHAR
STARTCHAR 004B
ENCODING 75
SWIDTH 468 0
DWIDTH 15 0
BBX 17 24 -1 2
BITMAP
1C0E00
221100
622080
624100
44C100
448200
450600
430400
420800
461800
C43000
C42000
C42000
843000
843000
8E1800
8A1800
890800
890C00
888400
888400
888400
904400
E03800
ENDCHAR
STARTCHAR 004C
ENCODING 76
SWIDTH 437 0
DWIDTH 14 0
BBX 15 24 -1 2
BITMAP
1C00
2600
4200
4600
4600
4600
4600
4400
4400
4400
C400
8400
8400
8400
8400
8400
8400
8400
87FC
8004
8006
8004
8004
7FF8
ENDCHAR
STARTCHAR 004D
ENCODING 77
SWIDTH 593 0
DWIDTH 19 0
BBX 20 24 -1 2
BITMAP
1C00E0
260330
430630
419830
40F030
406030
400030
460620
470E20
451E20
C4E620
8C0420
880420
880420
880420
880420
880420
880420
880420
880420
880420
880420
900440
E00380
ENDCHAR
STARTCHAR 004E
ENCODING 78
SWIDTH 593 0
DWIDTH 19 0
BBX 19 24 0 2
BITMAP
1C03C0
260640
230460
210460
418460
408440
40CC40
404C40
406840
402840
463840
461840
471840
450840
458040
C480C0
8CC080
8C4080
8C2080
882080
881080
881080
980980
700F00
ENDCHAR
STARTCHAR 004F
ENCODING 79
SWIDTH 468 0
DWIDTH 15 0
BBX 16 24 -1 2
BITMAP
03E0
0C18
180C
3006
21C2
4663
4423
4423
4423
4423
C822
8822
8822
8822
8822
8822
8822
8C42
8786
8004
4008
6010
1860
0F80
ENDCHAR
STARTCHAR 0050
ENCODING 80
SWIDTH 468 0
DWIDTH 15 0
BBX 16 24 -1 3
BITMAP
1FE0
6018
4004
4006
47C2
4422
4421
4421
4462
47C2
C706
8C04
8C18
8C30
8BC0
8800
8800
8800
8800
8800
8800
8800
9000
E000
ENDCHAR
STARTCHAR 0051
ENCODING 81
SWIDTH 468 0
DWIDTH 15 0
BBX 16 24 -1 2
BITMAP
03E0
0C18
180C
3006
21C2
4663
4423
4423
4423
4423
C822
8822
8822
8822
8822
8822
8822
8C42
8784
8004
4004
6004
10C4
0FB8
ENDCHAR
STARTCHAR 0052
ENCODING 82
SWIDTH 468 0
DWIDTH 15 0
BBX 16 24 -1 3
BITMAP
1FE0
6018
4004
4002
47C2
4422
4421
4422
4462
47C2
C606
8C0C
8C18
8C30
8C30
8A10
8A18
8B08
890C
898C
8884
8884
9044
E078
ENDCHAR
STARTCHAR 0053
ENCODING 83
SWIDTH 468 0
DWIDTH 15 0
BBX 16 24 -1 2
BITMAP
03F0
0C18
1804
3002
21C3
4261
4421
4431
4633
43FC
6038
3008
1804
0F86
79E2
8C22
8C22
8442
8384
8004
4008
6010
3060
0F80
ENDCHAR
STARTCHAR 0054
ENCODING 84
SWIDTH 468 0
DWIDTH 15 0
BBX 15 24 0 2
BITMAP
3FFC
4002
8002
C002
7C3C
0C40
0C40
0C40
0840
0840
0840
0840
0840
0840
0840
0840
0840
1880
1080
1080
1080
1080
1980
0F00
ENDCHAR
STARTCHAR 0055
ENCODING 85
SWIDTH 531 0
DWIDTH 17 0
BBX 16 24 0 2
BITMAP
1C0E
2619
4211
4211
4611
4611
4411
4411
4411
4413
4422
C422
8C22
8822
8822
8822
8822
8C42
8782
8004
4008
2010
1860
0F80
ENDCHAR
STARTCHAR 0056
ENCODING 86
SWIDTH 468 0
DWIDTH 15 0
BBX 15 24 0 2
BITMAP
781C
C822
8462
8442
4446
44C4
4484
4488
4388
4308
2310
2310
2010
2020
2020
2020
3040
1040
1040
1080
1080
1080
1900
0E00
ENDCHAR
STARTCHAR 0057
ENCODING 87
SWIDTH 593 0
DWIDTH 19 0
BBX 20 24 -1 2
BITMAP
1C00E0
260130
420230
460230
460230
460230
440230
440220
440220
440220
C40220
840220
840420
84F420
871C20
860C20
840420
800020
80C020
83E020
863020
8C1820
980440
700380
ENDCHAR
STARTCHAR 0058
ENCODING 88
SWIDTH 468 0
DWIDTH 15 0
BBX 16 24 -1 2
BITMAP
1C0E
2213
2231
2323
2142
21C6
1084
100C
1008
0810
0830
0420
0C20
0830
1830
3018
2118
638C
438C
8684
84C6
8842
9864
7038
ENDCHAR
STARTCHAR 0059
ENCODING 89
SWIDTH 468 0
DWIDTH 15 0
BBX 15 24 0 2
BITMAP
381C
4426
C462
C6C6
4284
438C
6108
2018
2010
1030
1020
0840
0840
0840
0840
0840
0840
1880
1880
1080
1080
1080
1980
0F00
ENDCHAR
STARTCHAR 005A
ENCODING 90
SWIDTH 500 0
DWIDTH 16 0
BBX 18 24 -1 2
BITMAP
0FFF00
100080
1000C0
100080
1FE180
006100
00C200
00C200
018400
038C00
030800
061800
061000
0C2000
0C6000
184000
38C000
308000
61FE00
600300
C00100
C00100
600200
7FFE00
ENDCHAR
STARTCHAR 005B
ENCODING 91
SWIDTH 375 0
DWIDTH 12 0
BBX 11 28 0 -2
BITMAP
1FC0
3020
2020
2020
23C0
2380
2200
2200
6200
4200
4200
4200
4200
4200
4600
4600
4600
4400
4400
4400
8400
8400
8600
8780
8080
8080
8180
7F00
ENDCHAR
STARTCHAR 005C
ENCODING 92
SWIDTH 500 0
DWIDTH 16 0
BBX 13 24 1 2
BITMAP
7800
CC00
8400
8600
C200
4200
4100
2100
2180
3080
10C0
1040
0840
0860
0420
0430
0410
0210
0218
0108
0108
0188
0098
0070
ENDCHAR
STARTCHAR 005D
ENCODING 93
SWIDTH 375 0
DWIDTH 12 0
BBX 11 28 0 -2
BITMAP
1FC0
3020
2020
2020
1E20
0620
0620
0420
0420
0460
0460
0440
0440
0440
0440
0440
0C40
0C40
0840
0840
08C0
0880
3880
7880
8080
8080
8080
7F00
ENDCHAR
STARTCHAR 005E
ENCODING 94
SWIDTH 500 0
DWIDTH 16 0
BBX 15 10 0 16
BITMAP
03C0
0420
0830
1018
200C
4104
8382
86C2
8C66
703C
ENDCHAR
STARTCHAR 005F
ENCODING 95
SWIDTH 531 0
DWIDTH 17 0
BBX 15 6 1 2
BITMAP
7FFC
4002
8002
8002
C004
7FFC
ENDCHAR
STARTCHAR 0060
ENCODING 96
SWIDTH 343 0
DWIDTH 11 0
BBX 9 10 0 16
BITMAP
7000
8C00
8400
8200
8100
4080
2080
1080
0880
0700
ENDCHAR
STARTCHAR 0061
ENCODING 97
SWIDTH 500 0
DWIDTH 16 0
BBX 15 24 0 2
BITMAP
00E0
0120
0230
0210
0610
0418
0418
0C18
0818
0808
1808
1088
108C
318C
218C
2184
6244
4244
4244
C446
8446
8C42
8826
703C
ENDCHAR
STARTCHAR 0062
ENCODING 98
SWIDTH 468 0
DWIDTH 15 0
BBX 16 24 -1 2
BITMAP
1FE0
6018
4004
6002
3FC2
0022
0031
0022
0062
39C2
4E06
840C
840C
8604
85C4
8442
8442
8444
8784
8004
8008
8010
8060
7F80
ENDCHAR
STARTCHAR 0063
ENCODING 99
SWIDTH 468 0
DWIDTH 15 0
BBX 16 24 -1 2
BITMAP
03F0
0C18
1804
3002
20E3
4361
4431
4431
4432
441C
C800
8800
8800
8800
883C
8862
8842
8CC2
8786
8004
4008
6018
1860
0F80
ENDCHAR
STARTCHAR 0064
ENCODING 100
SWIDTH 468 0
DWIDTH 15 0
BBX 16 24 -1 3
BITMAP
1FE0
6018
4004
4002
43C2
4263
4223
4423
4423
4422
8422
8422
8422
8422
8422
8422
8442
8444
8784
8004
8008
8010
8060
7F80
ENDCHAR
STARTCHAR 0065
ENCODING 101
SWIDTH 468 0
DWIDTH 15 0
BBX 16 24 -1 2
BITMAP
03FE
0C01
1001
2003
21FC
4600
4800
4800
4800
47FC
8C06
8802
8802
8FE4
8BF8
8800
8800
8800
8400
C3FC
4002
7002
3FC6
07F8
ENDCHAR
STARTCHAR 0066
ENCODING 102
SWIDTH 437 0
DWIDTH 14 0
BBX 17 24 -1 2
BITMAP
01FE00
0E0100
180080
300100
21FE00
420000
440000
440000
440000
47FC00
C40200
8C0300
8C0200
8FF200
8BFC00
880000
880000
880000
880000
880000
880000
880000
900000
E00000
ENDCHAR
STARTCHAR 0067
ENCODING 103
SWIDTH 468 0
DWIDTH 15 0
BBX 16 24 -1 2
BITMAP
03E0
0C18
1804
3006
21C2
4263
4423
4423
4436
47FE
C602
8402
8402
8402
8FE2
8862
8822
8466
8384
8004
4008
6018
1060
0F80
ENDCHAR
STARTCHAR 0068
ENCODING 104
SWIDTH 531 0
DWIDTH 17 0
BBX 17 24 0 2
BITMAP
1C0E00
221100
221180
221100
623100
422100
422100
442100
442100
47E100
460100
440100
440100
440100
47E300
442300
842200
886200
884200
884200
884200
884200
984600
703C00
ENDCHAR
STARTCHAR 0069
ENCODING 105
SWIDTH 187 0
DWIDTH 6 0
BBX 7 24 -1 2
BITMAP
1C
26
42
42
46
46
46
46
44
44
C4
84
84
84
84
84
84
84
84
84
84
84
88
70
ENDCHAR
STARTCHAR 006A
ENCODING 106
SWIDTH 531 0
DWIDTH 17 0
BBX 16 24 0 2
BITMAP
000E
0011
0021
0021
0021
0021
0021
0021
0021
0022
0022
0062
0042
0042
7842
8842
8C42
8CC2
8704
8004
4008
6010
1860
0F80
ENDCHAR
STARTCHAR 006B
ENCODING 107
SWIDTH 468 0
DWIDTH 15 0
BBX 17 24 -1 2
BITMAP
1C0E00
221100
622080
624100
44C100
448200
450600
430400
420800
461800
C43000
C42000
C42000
843000
843000
8E1800
8A1800
890800
890C00
888400
888400
888400
904400
E03800
ENDCHAR
STARTCHAR 006C
ENCODING 108
SWIDTH 437 0
DWIDTH 14 0
BBX 15 24 -1 2
BITMAP
1C00
2600
4200
4600
4600
4600
4600
4400
4400
4400
C400
8400
8400
8400
8400
8400
8400
8400
87FC
8004
8006
8004
8004
7FF8
ENDCHAR
STARTCHAR 006D
ENCODING 109
SWIDTH 593 0
DWIDTH 19 0
BBX 20 24 -1 2
BITMAP
1C00E0
260330
430630
419830
40F030
406030
400030
460620
470E20
451E20
C4E620
8C0420
880420
880420
880420
880420
880420
880420
880420
880420
880420
880420
900440
E00380
ENDCHAR
STARTCHAR 006E
ENCODING 110
SWIDTH 593 0
DWIDTH 19 0
BBX 19 24 0 2
BITMAP
1C03C0
260640
230460
210460
418460
408440
40CC40
404C40
406840
402840
463840
461840
471840
450840
458040
C480C0
8CC080
8C4080
8C2080
882080
881080
881080
980980
700F00
ENDCHAR
STARTCHAR 006F
ENCODING 111
SWIDTH 468 0
DWIDTH 15 0
BBX 16 24 -1 2
BITMAP
03E0
0C18
180C
3006
21C2
4663
4423
4423
4423
4423
C822
8822
8822
8822
8822
8822
8822
8C42
8786
8004
4008
6010
1860
0F80
ENDCHAR
STARTCHAR 0070
ENCODING 112
SWIDTH 468 0
DWIDTH 15 0
BBX 16 24 -1 3
BITMAP
1FE0
6018
4004
4006
47C2
4422
4421
4421
4462
47C2
C706
8C04
8C18
8C30
8BC0
8800
8800
8800
8800
8800
8800
8800
9000
E000
ENDCHAR
STARTCHAR 0071
ENCODING 113
SWIDTH 468 0
DWIDTH 15 0
BBX 16 24 -1 2
BITMAP
03E0
0C18
180C
3006
21C2
4663
4423
4423
4423
4423
C822
8822
8822
8822
8822
8822
8822
8C42
8784
8004
4004
6004
10C4
0FB8
ENDCHAR
STARTCHAR 0072
ENCODING 114
SWIDTH 468 0
DWIDTH 15 0
BBX 16 24 -1 3
BITMAP
1FE0
6018
4004
4002
47C2
4422
4421
4422
4462
47C2
C606
8C0C
8C18
8C30
8C30
8A10
8A18
8B08
890C
898C
8884
8884
9044
E078
ENDCHAR
STARTCHAR 0073
ENCODING 115
SWIDTH 468 0
DWIDTH 15 0
BBX 16 24 -1 2
BITMAP
03F0
0C18
1804
3002
21C3
4261
4421
4431
4633
43FC
6038
3008
1804
0F86
79E2
8C22
8C22
8442
8384
8004
4008
6010
3060
0F80
ENDCHAR
STARTCHAR 0074
ENCODING 116
SWIDTH 468 0
DWIDTH 15 0
BBX 15 24 0 2
BITMAP
3FFC
4002
8002
C002
7C3C
0C40
0C40
0C40
0840
0840
0840
0840
0840
0840
0840
0840
0840
1880
1080
1080
1080
1080
1980
0F00
ENDCHAR
STARTCHAR 0075
ENCODING 117
SWIDTH 531 0
DWIDTH 17 0
BBX 16 24 0 2
BITMAP
1C0E
2619
4211
4211
4611
4611
4411
4411
4411
4413
4422
C422
8C22
8822
8822
8822
8822
8C42
8782
8004
4008
2010
1860
0F80
ENDCHAR
STARTCHAR 0076
ENCODING 118
SWIDTH 468 0
DWIDTH 15 0
BBX 15 24 0 2
BITMAP
781C
C822
8462
8442
4446
44C4
4484
4488
4388
4308
4310
2310
2010
2020
2020
2020
2040
1040
1040
1080
1080
1080
0900
0E00
ENDCHAR
STARTCHAR 0077
ENCODING 119
SWIDTH 593 0
DWIDTH 19 0
BBX 20 24 -1 2
BITMAP
1C00E0
260130
420230
460230
460230
460230
440230
440220
440220
440220
C40220
840220
840420
84F420
871C20
860C20
840420
800020
80C020
83E020
863020
8C1820
980440
700380
ENDCHAR
STARTCHAR 0078
ENCODING 120
SWIDTH 468 0
DWIDTH 15 0
BBX 16 24 -1 2
BITMAP
1C0E
2213
2231
2323
2142
21C6
1084
100C
1008
0810
0830
0420
0C20
0830
1830
3018
2118
638C
438C
8684
84C6
8842
9864
7038
ENDCHAR
STARTCHAR 0079
ENCODING 121
SWIDTH 468 0
DWIDTH 15 0
BBX 15 24 0 2
BITMAP
381C
4426
C462
C6C6
4284
438C
6108
2018
2010
1030
1020
0840
0840
0840
0840
0840
0840
1880
1880
1080
1080
1080
1980
0F00
ENDCHAR
STARTCHAR 007A
ENCODING 122
SWIDTH 500 0
DWIDTH 16 0
BBX 18 24 -1 2
BITMAP
0FFF00
100080
1000C0
100080
1FF180
006100
00C200
00C200
018400
038C00
030800
061800
061000
0C2000
0C6000
184000
38C000
308000
61FE00
600300
C00100
C00100
600200
7FFE00
ENDCHAR
STARTCHAR 007B
ENCODING 123
SWIDTH 406 0
DWIDTH 13 0
BBX 15 28 -1 -2
BITMAP
003C
00C2
0182
0202
061C
0430
0440
0440
0440
0840
0880
1880
7100
4600
8600
C200
7100
1900
1900
1100
1100
1100
10E0
0878
0C08
0608
0308
00F0
ENDCHAR
STARTCHAR 007C
ENCODING 124
SWIDTH 187 0
DWIDTH 6 0
BBX 7 24 -1 2
BITMAP
1C
26
42
42
46
46
46
46
44
44
C4
84
84
84
84
84
84
84
84
84
84
84
88
70
ENDCHAR
STARTCHAR 007D
ENCODING 125
SWIDTH 500 0
DWIDTH 16 0
BBX 14 28 0 -2
BITMAP
1F00
3180
2040
2020
3C20
0E30
0210
0230
0230
0220
0220
0330
0118
00C4
00C4
018C
0318
0220
0620
0420
0420
0420
1820
7040
8080
8180
8600
7800
ENDCHAR
STARTCHAR 007E
ENCODING 126
SWIDTH 500 0
DWIDTH 16 0
BBX 13 9 1 17
BITMAP
1E00
6100
C0B0
9CA8
94E8
7448
0410
0230
01C0
ENDCHAR
STARTCHAR 00A1
ENCODING 161
SWIDTH 187 0
DWIDTH 6 0
BBX 7 24 -1 2
BITMAP
1C
24
42
24
38
00
38
44
44
44
C4
84
84
84
84
84
84
84
84
84
84
84
88
70
ENDCHAR
STARTCHAR 00C0
ENCODING 192
SWIDTH 500 0
DWIDTH 16 0
BBX 15 34 -1 2
BITMAP
03C0
0660
0430
0418
020C
0106
0082
0042
0066
001C
00E0
0120
0310
0210
0210
0618
0408
0408
0C08
0808
0808
190C
118C
1184
2384
2384
2284
4644
4646
4442
C442
8C42
C866
783C
ENDCHAR
STARTCHAR 00C1
ENCODING 193
SWIDTH 500 0
DWIDTH 16 0
BBX 15 34 -1 2
BITMAP
001C
0022
0042
0182
0304
0608
0410
0420
04C0
0380
00C0
0120
0210
0210
0210
0610
0418
0418
0808
0808
0808
1088
108C
118C
21CC
21C4
62C4
4244
4244
C446
C446
8C62
C866
703C
ENDCHAR
STARTCHAR 00C2
ENCODING 194
SWIDTH 500 0
DWIDTH 16 0
BBX 17 34 -1 2
BITMAP
007000
019800
030C00
060600
0C0200
100100
306080
21B080
231880
1C0F00
00E000
012000
021000
021000
021000
061800
041800
041800
0C1800
080800
080800
190800
118C00
118C00
338C00
238400
228400
624400
464400
444600
C44600
8C4200
C86600
783C00
ENDCHAR
STARTCHAR 00C3
ENCODING 195
SWIDTH 500 0
DWIDTH 16 0
BBX 17 33 -1 2
BITMAP
03E000
063000
081800
100B00
11CE80
134C80
0E4180
006300
007C00
00E000
013000
021000
021000
041000
041000
040800
080800
080800
080800
180800
110800
118400
318400
238400
238400
628400
464400
464200
C44200
8C4200
8C4200
886400
783800
ENDCHAR
STARTCHAR 00C4
ENCODING 196
SWIDTH 531 0
DWIDTH 17 0
BBX 16 29 0 2
BITMAP
070E
0893
08A3
08A3
071E
00E0
0120
0230
0210
0610
0418
0418
0C18
0818
0808
1808
1088
108C
318C
218C
2184
6244
4244
4244
C446
8446
8C42
8826
703C
ENDCHAR
STARTCHAR 00C5
ENCODING 197
SWIDTH 500 0
DWIDTH 16 0
BBX 15 32 -1 2
BITMAP
00F0
0188
0364
0294
0294
026C
0318
01F0
0120
0210
0210
0210
0410
0410
0408
0808
0808
0808
1808
1088
1088
3184
2184
2284
62C4
42C4
44C4
C442
C442
8842
C864
7038
ENDCHAR
STARTCHAR 00C6
ENCODING 198
SWIDTH 750 0
DWIDTH 24 0
BBX 26 24 -1 2
BITMAP
000FFF80
00100080
00200040
00600080
0041FF00
00820000
00820000
01020000
02020000
0203FE00
04020100
04220080
08620180
08E3F900
10E3FE00
21E20000
21220000
42220000
42220000
8421FE00
8C100200
88180300
F00FE200
7003FC00
ENDCHAR
STARTCHAR 00C8
ENCODING 200
SWIDTH 531 0
DWIDTH 17 0
BBX 16 34 0 2
BITMAP
0380
0660
0420
0410
0608
0304
0182
00C2
0064
0038
07FF
0C01
1801
3002
21FC
4600
4800
4800
4800
47FC
4406
8802
8802
8FE6
89FC
8800
8800
8C00
87FC
4002
4002
3002
1FFE
07F8
ENDCHAR
STARTCHAR 00C9
ENCODING 201
SWIDTH 531 0
DWIDTH 17 0
BBX 16 34 0 2
BITMAP
001C
0062
00C2
0186
030E
041C
0838
0870
0DC0
0780
03FE
0C01
1801
3003
21FE
4600
4800
4800
4800
47FC
4406
8802
8802
8FE6
89FC
8800
8800
8C00
87FC
4002
4002
3002
1FFE
07F8
ENDCHAR
STARTCHAR 00CA
ENCODING 202
SWIDTH 468 0
DWIDTH 15 0
BBX 17 34 -2 2
BITMAP
007000
019800
030C00
060600
0C0300
180180
106080
219080
131880
1E1F00
03FF00
0E0100
180100
100100
21FE00
220000
440000
440000
440000
47FC00
440200
440200
440200
47F200
45FC00
440000
4C0000
840000
43FC00
400200
600200
300200
1FFE00
07FC00
ENDCHAR
STARTCHAR 00CB
ENCODING 203
SWIDTH 468 0
DWIDTH 15 0
BBX 16 29 -1 2
BITMAP
0E1C
1926
1142
1926
0E3C
05C2
1801
2001
2002
43FC
4400
4800
8800
8800
8FF8
8C04
8802
8802
8804
8FF8
8800
8800
8800
87FC
C004
4002
6006
3FFC
0FF8
ENDCHAR
STARTCHAR 00CC
ENCODING 204
SWIDTH 218 0
DWIDTH 7 0
BBX 10 34 -3 2
BITMAP
7800
CC00
8200
8300
4180
60C0
3040
1840
0CC0
0780
0700
0880
0880
0880
0880
1080
1080
1080
1080
1080
1080
1100
1100
1100
1100
1100
2100
2100
2100
2100
2100
2100
3300
1C00
ENDCHAR
STARTCHAR 00CD
ENCODING 205
SWIDTH 250 0
DWIDTH 8 0
BBX 13 34 -2 2
BITMAP
0070
0188
0308
0618
0838
1070
20E0
21C0
2300
1E00
1C00
2200
2200
2200
2200
2200
4200
4200
4400
4400
4400
4400
4400
4400
4400
4400
4400
8800
8800
8800
8800
8800
8800
7000
ENDCHAR
STARTCHAR 00CE
ENCODING 206
SWIDTH 312 0
DWIDTH 10 0
BBX 15 34 -3 2
BITMAP
03C0
0660
0C30
1810
2008
4004
8382
86C2
8C62
703C
0780
08C0
08C0
08C0
08C0
18C0
1880
1080
1080
1080
1080
1080
1080
1080
1080
1180
3100
2100
2100
2100
2100
2100
2300
1C00
ENDCHAR
STARTCHAR 00CF
ENCODING 207
SWIDTH 218 0
DWIDTH 7 0
BBX 13 29 -3 2
BITMAP
3870
4990
CD18
4910
70E0
0700
1900
1180
1180
1100
1100
1100
1100
1100
1100
2100
2300
2300
2200
2200
2200
2200
2200
2200
2200
2200
6200
2400
3800
ENDCHAR
STARTCHAR 00D1
ENCODING 209
SWIDTH 593 0
DWIDTH 19 0
BBX 19 24 0 2
BITMAP
1C03C0
260640
230460
210460
418460
408440
40CC40
404C40
406840
402840
463840
461840
471840
450840
458040
C480C0
8CC080
8C4080
8C2080
882080
881080
881080
980980
700F00
ENDCHAR
STARTCHAR 00D2
ENCODING 210
SWIDTH 531 0
DWIDTH 17 0
BBX 16 34 0 2
BITMAP
0380
0660
0420
0410
0608
0304
0182
00C2
0066
003C
03E0
0C18
180C
3006
21C2
4263
4421
4423
4423
4423
4423
C822
8862
8842
8842
8842
8842
8C82
8702
8004
400C
2018
1860
0F80
ENDCHAR
STARTCHAR 00D3
ENCODING 211
SWIDTH 531 0
DWIDTH 17 0
BBX 16 34 0 2
BITMAP
001C
0062
00C2
0186
030E
041C
0838
0870
0DC0
0780
03E0
0C18
180C
3006
21C2
4263
4421
4423
4423
4423
4423
C822
8862
8842
8842
8842
8842
8C82
8702
8004
400C
2018
1860
0F80
ENDCHAR
STARTCHAR 00D4
ENCODING 212
SWIDTH 468 0
DWIDTH 15 0
BBX 17 34 -2 2
BITMAP
007000
019800
030C00
060600
0C0300
180180
106080
219080
131880
1E0F00
01F000
061C00
080600
100200
21C100
222100
441100
443100
443100
442100
442100
442100
442100
442100
442100
442100
484100
844200
438200
400600
600C00
301800
186000
078000
ENDCHAR
STARTCHAR 00D5
ENCODING 213
SWIDTH 468 0
DWIDTH 15 0
BBX 16 24 -1 2
BITMAP
03E0
0C18
180C
3006
21C2
4663
4423
4423
4423
4423
C822
8822
8822
8822
8822
8822
8822
8C42
8786
8004
4008
6010
1860
0F80
ENDCHAR
STARTCHAR 00D6
ENCODING 214
SWIDTH 500 0
DWIDTH 16 0
BBX 16 29 0 2
BITMAP
0E1C
1922
1922
1926
0F3C
07F0
0C1C
1804
3006
21C3
4263
4423
4423
4423
4423
4423
C822
8822
8822
8822
8822
8822
8C42
8782
8004
4008
2010
1860
0F80
ENDCHAR
STARTCHAR 00D8
ENCODING 216
SWIDTH 468 0
DWIDTH 15 0
BBX 16 24 -1 2
BITMAP
03FC
0C12
1001
2003
61C2
47C3
C583
8503
8603
8402
8402
8022
8062
8062
80E2
80E2
8162
83C4
8384
C00C
8008
8010
9C60
7780
ENDCHAR
STARTCHAR 00D9
ENCODING 217
SWIDTH 562 0
DWIDTH 18 0
BBX 16 34 0 2
BITMAP
0380
0660
0420
0410
0608
0304
0182
00C2
0066
003C
1C0E
2631
4231
4231
4631
4621
4421
4421
4421
4463
4463
C462
8C62
8862
8862
8842
8842
8CC2
8782
8004
4008
2010
1860
0F80
ENDCHAR
STARTCHAR 00DA
ENCODING 218
SWIDTH 562 0
DWIDTH 18 0
BBX 16 34 0 2
BITMAP
001C
0062
00C2
0186
030E
041C
0838
0870
08C0
0780
1C0E
2631
4231
4231
4631
4621
4421
4421
4421
4463
4463
C462
8C62
8862
8862
8842
8842
8CC2
8782
8004
4008
2010
1860
0F80
ENDCHAR
STARTCHAR 00DB
ENCODING 219
SWIDTH 562 0
DWIDTH 18 0
BBX 17 34 0 2
BITMAP
00E000
019000
020800
040400
080200
100300
20E100
212180
221100
3C0F00
243200
422100
422100
424100
424100
464100
444100
444100
444200
444200
444200
C44200
8C8200
888200
888200
888200
888200
8C8200
870400
800400
400800
201000
186000
0F8000
ENDCHAR
STARTCHAR 00DC
ENCODING 220
SWIDTH 531 0
DWIDTH 17 0
BBX 16 29 0 2
BITMAP
0E1C
1922
1922
1926
1E3C
1C0E
2219
4211
4211
4211
4211
4411
4411
4431
4433
4422
C422
8422
8822
8822
8822
8822
8C42
8782
8004
4008
2010
1860
0F80
ENDCHAR
STARTCHAR 00E0
ENCODING 224
SWIDTH 500 0
DWIDTH 16 0
BBX 15 34 -1 2
BITMAP
03C0
0660
0430
0418
020C
0106
0082
0042
0066
001C
00E0
0120
0310
0210
0210
0618
0408
0408
0C08
0808
0808
190C
118C
1184
2384
2384
2284
4644
4646
4442
C442
8C42
C866
783C
ENDCHAR
STARTCHAR 00E1
ENCODING 225
SWIDTH 500 0
DWIDTH 16 0
BBX 15 34 -1 2
BITMAP
001C
0022
0042
0182
0304
0608
0410
0420
04C0
0380
00C0
0120
0210
0210
0210
0610
0418
0418
0808
0808
0808
1088
108C
118C
21CC
21C4
62C4
4244
4244
C446
C446
8C62
C866
703C
ENDCHAR
STARTCHAR 00E2
ENCODING 226
SWIDTH 500 0
DWIDTH 16 0
BBX 17 34 -1 2
BITMAP
007000
019800
030C00
060600
0C0200
100100
306080
21B080
231880
1C0F00
00E000
012000
021000
021000
021000
061800
041800
041800
0C1800
080800
080800
190800
118C00
118C00
338C00
238400
228400
624400
464400
444600
C44600
8C4200
C86600
783C00
ENDCHAR
STARTCHAR 00E3
ENCODING 227
SWIDTH 500 0
DWIDTH 16 0
BBX 17 33 -1 2
BITMAP
03E000
063000
081800
100B00
11CE80
134C80
0E4180
006300
007C00
00E000
013000
021000
021000
041000
041000
040800
080800
080800
080800
180800
110800
118400
318400
238400
238400
628400
464400
464200
C44200
8C4200
8C4200
886400
783800
ENDCHAR
STARTCHAR 00E4
ENCODING 228
SWIDTH 531 0
DWIDTH 17 0
BBX 16 29 0 2
BITMAP
070E
0893
08A3
08A3
071E
00E0
0120
0230
0210
0610
0418
0418
0C18
0818
0808
1808
1088
108C
318C
218C
2184
6244
4244
4244
C446
8446
8C42
8826
703C
ENDCHAR
STARTCHAR 00E5
ENCODING 229
SWIDTH 500 0
DWIDTH 16 0
BBX 15 32 -1 2
BITMAP
00F0
0188
0364
0294
0294
026C
0318
01F0
0120
0210
0210
0210
0410
0410
0408
0808
0808
0808
1808
1088
1088
3184
2184
2284
62C4
42C4
44C4
C442
C442
8842
C864
7038
ENDCHAR
STARTCHAR 00E6
ENCODING 230
SWIDTH 750 0
DWIDTH 24 0
BBX 26 24 -1 2
BITMAP
000FFF80
00100080
00200040
00600080
0041FF00
00820000
00820000
01020000
02020000
0203FE00
04020100
04220080
08620180
08E3F900
10E3FE00
21E20000
21220000
42220000
42220000
8421FE00
8C100200
88180300
F00FE200
7003FC00
ENDCHAR
STARTCHAR 00E8
ENCODING 232
SWIDTH 531 0
DWIDTH 17 0
BBX 16 34 0 2
BITMAP
0380
0660
0420
0410
0608
0304
0182
00C2
0064
0038
07FF
0C01
1801
3002
21FC
4600
4800
4800
4800
47FC
4406
8802
8802
8FE6
89FC
8800
8800
8C00
87FC
4002
4002
3002
1FFE
07F8
ENDCHAR
STARTCHAR 00E9
ENCODING 233
SWIDTH 531 0
DWIDTH 17 0
BBX 16 34 0 2
BITMAP
001C
0062
00C2
0186
030E
041C
0838
0870
0DC0
0780
03FE
0C01
1801
3003
21FE
4600
4800
4800
4800
47FC
4406
8802
8802
8FE6
89FC
8800
8800
8C00
87FC
4002
4002
3002
1FFE
07F8
ENDCHAR
STARTCHAR 00EA
ENCODING 234
SWIDTH 468 0
DWIDTH 15 0
BBX 17 34 -2 2
BITMAP
007000
019800
030C00
060600
0C0300
180180
106080
219080
131880
1E1F00
03FF00
0E0100
180100
100100
21FE00
220000
440000
440000
440000
47FC00
440200
440200
440200
47F200
45FC00
440000
4C0000
840000
43FC00
400200
600200
300200
1FFE00
07FC00
ENDCHAR
STARTCHAR 00EB
ENCODING 235
SWIDTH 468 0
DWIDTH 15 0
BBX 16 29 -1 2
BITMAP
0E1C
1926
1142
1926
0E3C
05C2
1801
2001
2002
43FC
4400
4800
8800
8800
8FF8
8C04
8802
8802
8804
8FF8
8800
8800
8800
87FC
C004
4002
6006
3FFC
0FF8
ENDCHAR
STARTCHAR 00EC
ENCODING 236
SWIDTH 218 0
DWIDTH 7 0
BBX 10 34 -3 2
BITMAP
7800
CC00
8200
8300
4180
60C0
3040
1840
0CC0
0780
0700
0880
0880
0880
0880
1080
1080
1080
1080
1080
1080
1100
1100
1100
1100
1100
2100
2100
2100
2100
2100
2100
3300
1C00
ENDCHAR
STARTCHAR 00ED
ENCODING 237
SWIDTH 250 0
DWIDTH 8 0
BBX 13 34 -2 2
BITMAP
0070
0188
0308
0618
0838
1070
20E0
21C0
2300
1E00
1C00
2200
2200
2200
2200
2200
4200
4200
4400
4400
4400
4400
4400
4400
4400
4400
4400
8800
8800
8800
8800
8800
8800
7000
ENDCHAR
STARTCHAR 00EE
ENCODING 238
SWIDTH 312 0
DWIDTH 10 0
BBX 15 34 -3 2
BITMAP
03C0
0660
0C30
1810
2008
4004
8382
86C2
8C62
703C
0780
08C0
08C0
08C0
08C0
18C0
1880
1080
1080
1080
1080
1080
1080
1080
1080
1180
3100
2100
2100
2100
2100
2100
2300
1C00
ENDCHAR
STARTCHAR 00EF
ENCODING 239
SWIDTH 218 0
DWIDTH 7 0
BBX 13 29 -3 2
BITMAP
3870
4990
CD18
4910
70E0
0700
1900
1180
1180
1100
1100
1100
1100
1100
1100
2100
2300
2300
2200
2200
2200
2200
2200
2200
2200
2200
6200
2400
3800
ENDCHAR
STARTCHAR 00F1
ENCODING 241
SWIDTH 593 0
DWIDTH 19 0
BBX 19 24 0 2
BITMAP
1C03C0
260640
230460
210460
418460
408440
40CC40
404C40
406840
402840
463840
461840
471840
450840
458040
C480C0
8CC080
8C4080
8C2080
882080
881080
881080
980980
700F00
ENDCHAR
STARTCHAR 00F2
ENCODING 242
SWIDTH 531 0
DWIDTH 17 0
BBX 16 34 0 2
BITMAP
0380
0660
0420
0410
0608
0304
0182
00C2
0066
003C
03E0
0C18
180C
3006
21C2
4263
4421
4423
4423
4423
4423
C822
8862
8842
8842
8842
8842
8C82
8702
8004
400C
2018
1860
0F80
ENDCHAR
STARTCHAR 00F3
ENCODING 243
SWIDTH 531 0
DWIDTH 17 0
BBX 16 34 0 2
BITMAP
001C
0062
00C2
0186
030E
041C
0838
0870
0DC0
0780
03E0
0C18
180C
3006
21C2
4263
4421
4423
4423
4423
4423
C822
8862
8842
8842
8842
8842
8C82
8702
8004
400C
2018
1860
0F80
ENDCHAR
STARTCHAR 00F4
ENCODING 244
SWIDTH 468 0
DWIDTH 15 0
BBX 17 34 -2 2
BITMAP
007000
019800
030C00
060600
0C0300
180180
106080
219080
131880
1E0F00
01F000
061C00
080600
100200
21C100
222100
441100
443100
443100
442100
442100
442100
442100
442100
442100
442100
484100
844200
438200
400600
600C00
301800
186000
078000
ENDCHAR
STARTCHAR 00F5
ENCODING 245
SWIDTH 468 0
DWIDTH 15 0
BBX 16 24 -1 2
BITMAP
03E0
0C18
180C
3006
21C2
4663
4423
4423
4423
4423
C822
8822
8822
8822
8822
8822
8822
8C42
8786
8004
4008
6010
1860
0F80
ENDCHAR
STARTCHAR 00F6
ENCODING 246
SWIDTH 500 0
DWIDTH 16 0
BBX 16 29 0 2
BITMAP
0E1C
1922
1922
1926
0F3C
07F0
0C1C
1804
3006
21C3
4263
4423
4423
4423
4423
4423
C822
8822
8822
8822
8822
8822
8C42
8782
8004
4008
2010
1860
0F80
ENDCHAR
STARTCHAR 00F8
ENCODING 248
SWIDTH 468 0
DWIDTH 15 0
BBX 16 24 -1 2
BITMAP
03FC
0C12
1001
2003
61C2
47C3
C583
8503
8603
8402
8402
8022
8062
8062
80E2
80E2
8162
83C4
8384
C00C
8008
8010
9C60
7780
ENDCHAR
STARTCHAR 00F9
ENCODING 249
SWIDTH 562 0
DWIDTH 18 0
BBX 16 34 0 2
BITMAP
0380
0660
0420
0410
0608
0304
0182
00C2
0066
003C
1C0E
2631
4231
4231
4631
4621
4421
4421
4421
4463
4463
C462
8C62
8862
8862
8842
8842
8CC2
8782
8004
4008
2010
1860
0F80
ENDCHAR
STARTCHAR 00FA
ENCODING 250
SWIDTH 562 0
DWIDTH 18 0
BBX 16 34 0 2
BITMAP
001C
0062
00C2
0186
030E
041C
0838
0870
08C0
0780
1C0E
2631
4231
4231
4631
4621
4421
4421
4421
4463
4463
C462
8C62
8862
8862
8842
8842
8CC2
8782
8004
4008
2010
1860
0F80
ENDCHAR
STARTCHAR 00FB
ENCODING 251
SWIDTH 562 0
DWIDTH 18 0
BBX 17 34 0 2
BITMAP
00E000
019000
020800
040400
080200
100300
20E100
212180
221100
3C0F00
243200
422100
422100
424100
424100
464100
444100
444100
444200
444200
444200
C44200
8C8200
888200
888200
888200
888200
8C8200
870400
800400
400800
201000
186000
0F8000
ENDCHAR
STARTCHAR 00FC
ENCODING 252
SWIDTH 531 0
DWIDTH 17 0
BBX 16 29 0 2
BITMAP
0E1C
1922
1922
1926
1E3C
1C0E
2219
4211
4211
4211
4211
4411
4411
4431
4433
4422
C422
8422
8822
8822
8822
8822
8C42
8782
8004
4008
2010
1860
0F80
ENDCHAR
STARTCHAR 00FD
ENCODING 253
SWIDTH 468 0
DWIDTH 15 0
BBX 15 34 0 2
BITMAP
0078
00CC
0104
0208
0C10
1820
1040
1080
1300
0E00
7038
C864
88C6
8484
C58C
C308
4318
6010
2030
3020
1060
1040
18C0
1880
1880
1080
1080
1080
1080
1080
1080
1080
1100
0E00
ENDCHAR
STARTCHAR 00FF
ENCODING 255
SWIDTH 468 0
DWIDTH 15 0
BBX 15 29 0 2
BITMAP
1C38
324C
2284
324C
3C78
783C
C866
8442
8482
C284
430C
4308
2018
2010
3020
1020
1840
0840
0840
1840
1880
1880
1080
1080
1080
1080
1080
1180
0E00
ENDCHAR
STARTCHAR 014F
ENCODING 335
SWIDTH 1000 0
DWIDTH 32 0
BBX 0 0 0 0
BITMAP
ENDCHAR
STARTCHAR 2010
ENCODING 8208
SWIDTH 531 0
DWIDTH 17 0
BBX 15 6 1 11
BITMAP
7FFC
4002
8002
8002
C004
7FFC
ENDCHAR
ENDFONT
